<svg width="24" height="24" viewBox="0 0 24 24" fill="none" xmlns="http://www.w3.org/2000/svg">
<path fill-rule="evenodd" clip-rule="evenodd" d="M12 8.1C11.0217 8.17038 10.1063 8.60867 9.43809 9.32668C8.76987 10.0447 8.39839 10.9892 8.39839 11.97C8.39839 12.9508 8.76987 13.8953 9.43809 14.6133C10.1063 15.3313 11.0217 15.7696 12 15.84C12.9783 15.7696 13.8937 15.3313 14.5619 14.6133C15.2301 13.8953 15.6016 12.9508 15.6016 11.97C15.6016 10.9892 15.2301 10.0447 14.5619 9.32668C13.8937 8.60867 12.9783 8.17038 12 8.1ZM13.7478 10.2222C13.2839 9.75819 12.6561 9.49523 12 9.49C11.3439 9.49523 10.7161 9.75819 10.2522 10.2222C9.78819 10.6861 9.52523 11.3139 9.52 11.97C9.52523 12.6261 9.78819 13.2539 10.2522 13.7178C10.7161 14.1818 11.3439 14.4448 12 14.45C12.6561 14.4448 13.2839 14.1818 13.7478 13.7178C14.2118 13.2539 14.4748 12.6261 14.48 11.97C14.4748 11.3139 14.2118 10.6861 13.7478 10.2222Z" fill="white"/>
<path fill-rule="evenodd" clip-rule="evenodd" d="M15.11 4.5H8.9C6.33 4.5 4.6 6.15 4.5 8.66V15.09C4.5 16.39 4.92 17.5 5.77 18.32C6.55261 19.0522 7.57847 19.469 8.65 19.49L8.92 19.5H15.08C16.38 19.5 17.48 19.08 18.26 18.32C19.0382 17.5342 19.4795 16.4759 19.49 15.37L19.5 15.11V8.9C19.5 7.62 19.08 6.54 18.29 5.75C17.5122 4.97806 16.4657 4.53725 15.37 4.52L15.11 4.51V4.5ZM8.92 5.9H8.91H8.7C7.95958 5.90251 7.24662 6.18056 6.7 6.68C6.16 7.22 5.9 7.98 5.9 8.88V15.31C5.94 16.14 6.21 16.81 6.71 17.31C7.25 17.83 8.01 18.09 8.92 18.09H15.31C16.12 18.05 16.79 17.78 17.29 17.31C17.84 16.8 18.16 16.04 18.16 15.1V8.67C18.12 7.88 17.82 7.2 17.35 6.7C16.81 6.16 16.05 5.9 15.15 5.9H8.92Z" fill="white"/>
<path d="M16.02 7.13C15.7866 7.13 15.5628 7.22271 15.3977 7.38775C15.2327 7.55278 15.14 7.77661 15.14 8.01C15.14 8.24339 15.2327 8.46722 15.3977 8.63225C15.5628 8.79729 15.7866 8.89 16.02 8.89C16.2534 8.89 16.4772 8.79729 16.6423 8.63225C16.8073 8.46722 16.9 8.24339 16.9 8.01C16.9 7.77661 16.8073 7.55278 16.6423 7.38775C16.4772 7.22271 16.2534 7.13 16.02 7.13Z" fill="white"/>
</svg>
